<?xml version="1.0" encoding="UTF-8"?>
<svg id="Layer_2" data-name="Layer 2" xmlns="http://www.w3.org/2000/svg" viewBox="0 0 335.83 329.41">
  <defs>
    <style>
      .cls-1 {
        fill: #60bbff;
      }
    </style>
  </defs>
  <g id="Layer_1-2" data-name="Layer 1">
    <path class="cls-1" d="M153.65,6.19c3.7-3.95,8.86-6.19,14.27-6.19s10.57,2.24,14.27,6.19l42.96,45.88c.1.11.22.19.35.26.13.06.27.1.42.11l62.55,5.09c5.39.44,10.35,3.09,13.72,7.33,3.37,4.24,4.84,9.68,4.07,15.05l-8.97,62.3c-.02.14-.02.29.02.43.03.14.09.28.17.4l35.03,52.23c3.02,4.5,4.05,10.04,2.84,15.33-1.2,5.28-4.53,9.83-9.19,12.57l-54.15,31.81c-.13.07-.24.17-.33.28-.09.11-.16.24-.2.38l-18.86,60.04c-1.62,5.17-5.31,9.43-10.17,11.79-4.87,2.35-10.49,2.58-15.53.63l-58.56-22.64c-.14-.05-.28-.08-.43-.08s-.29.03-.43.08l-58.56,22.64c-5.04,1.95-10.66,1.72-15.53-.63-4.87-2.35-8.55-6.62-10.17-11.79l-18.86-60.04c-.04-.14-.11-.27-.2-.38-.09-.11-.2-.21-.33-.28l-54.15-31.81c-4.66-2.74-7.99-7.29-9.19-12.57-1.2-5.28-.17-10.83,2.84-15.33l35.03-52.23c.08-.12.14-.26.17-.4.03-.14.04-.29.02-.43l-8.97-62.3c-.77-5.36.7-10.81,4.07-15.05,3.37-4.24,8.33-6.89,13.72-7.33l62.55-5.09c.15-.01.29-.05.42-.11.13-.06.25-.15.35-.26L153.65,6.19Z"/>
  </g>
</svg>