<?xml version="1.0" encoding="UTF-8" standalone="no"?>
<!DOCTYPE svg PUBLIC "-//W3C//DTD SVG 1.1//EN" "http://www.w3.org/Graphics/SVG/1.1/DTD/svg11.dtd">
<svg width="100%" height="100%" viewBox="0 0 684 665" version="1.1" xmlns="http://www.w3.org/2000/svg" xmlns:xlink="http://www.w3.org/1999/xlink" xml:space="preserve" xmlns:serif="http://www.serif.com/" style="fill-rule:evenodd;clip-rule:evenodd;stroke-linecap:round;stroke-linejoin:round;stroke-miterlimit:1.5;">
    <g transform="matrix(1,0,0,1,-1196.270085,-4291.200685)">
        <g transform="matrix(1.9994,0,0,1.9994,-2943.401822,3780.668122)">
            <g id="Purpose-Pose-1" serif:id="Purpose Pose 1" transform="matrix(1.044695,0,0,1.044695,1631.404071,-1698.335844)">
                <g transform="matrix(1,0,0,1,-256.988527,674)">
                    <path d="M823,1510.212C823,1511.216 822.601,1512.18 821.89,1512.89C821.18,1513.601 820.216,1514 819.212,1514C809.842,1514 786.026,1514 781.685,1514C781.307,1514 781,1513.694 781,1513.315C781,1512.153 781,1509.776 781,1508.293C781,1507.506 781.46,1506.791 782.177,1506.465C786.739,1504.391 803,1497 803,1497L803,1459L823,1459L823,1510.212Z" style="fill:rgb(17,114,186);"/>
                    <g transform="matrix(-1,0,0,1,1657,0)">
                        <path d="M823,1510.212C823,1511.216 822.601,1512.18 821.89,1512.89C821.18,1513.601 820.216,1514 819.212,1514C809.842,1514 786.026,1514 781.685,1514C781.307,1514 781,1513.694 781,1513.315C781,1512.153 781,1509.776 781,1508.293C781,1507.506 781.46,1506.791 782.177,1506.465C786.739,1504.391 803,1497 803,1497L803,1459L823,1459L823,1510.212Z" style="fill:rgb(17,114,186);"/>
                    </g>
                    <g transform="matrix(1,0,0,1,0,-2)">
                        <path d="M803,1487.353L803,1473.944L823,1467.833L823,1478.529L803,1487.353Z"/>
                    </g>
                    <g transform="matrix(-1,0,0,1,1657,-2)">
                        <path d="M803,1487.353L803,1473.944L823,1467.833L823,1478.529L803,1487.353Z"/>
                    </g>
                </g>
                <g transform="matrix(1,0,0,1,-1651.988527,1686)">
                    <path d="M2397.886,236.65C2398.022,236.639 2398.161,236.648 2398.301,236.68C2399.03,236.846 2399.486,237.572 2399.32,238.301C2398.369,242.472 2393.088,251.672 2386.099,262.475C2370.05,287.283 2345.086,320.809 2345.086,320.809C2344.645,321.401 2343.81,321.53 2343.212,321.101L2341.845,323L2339.722,320L2340.213,319.401C2340.118,319.357 2340.027,319.301 2339.942,319.234C2339.356,318.769 2339.258,317.917 2339.722,317.331C2339.722,317.331 2365.616,284.652 2382.359,260.396C2389.419,250.168 2394.867,241.487 2395.906,237.487C2396.094,236.764 2396.834,236.329 2397.557,236.517C2397.675,236.548 2397.785,236.593 2397.886,236.65Z"/>
                </g>
                <g transform="matrix(1,0,0,1,-1651.988527,1686)">
                    <path d="M2117.292,400.507L2117.4,400.407C2118.245,399.626 2119.564,399.679 2120.344,400.524C2121.124,401.368 2121.072,402.688 2120.227,403.468C2120.227,403.468 2106.263,416.306 2095.13,423.07C2107.411,424.595 2132.852,428.074 2141.96,431.732C2143.027,432.161 2143.546,433.375 2143.117,434.442C2142.688,435.509 2141.474,436.027 2140.407,435.599C2128.559,430.839 2088.468,426.468 2087.878,426.404L2087.872,426.404C2087.243,426.335 2086.676,425.984 2086.335,425.442C2086.172,425.184 2086.069,424.896 2086.031,424.595C2085.931,423.798 2086.297,423.004 2086.989,422.569C2104.551,411.525 2114.255,400.594 2114.255,400.594C2115.017,399.733 2116.335,399.654 2117.195,400.416C2117.229,400.446 2117.261,400.476 2117.292,400.507Z"/>
                </g>
                <g transform="matrix(0.502525,-0.645671,1.026102,0.798614,-689.943987,3260.006077)">
                    <path d="M2369,239C2369,240.656 2366.864,242 2364.232,242L2362.768,242C2360.136,242 2358,240.656 2358,239C2358,237.344 2360.136,236 2362.768,236L2364.232,236C2366.864,236 2369,237.344 2369,239Z"/>
                </g>
                <g id="Puven" transform="matrix(0.685738,0,-0,0.687856,-1621.856567,1840.516635)">
                    <path d="M3179.31,51.086C3184.157,45.926 3190.921,43 3198,43C3205.079,43 3211.843,45.926 3216.69,51.086L3272.982,111.013C3273.113,111.152 3273.268,111.266 3273.439,111.349C3273.611,111.431 3273.797,111.482 3273.987,111.497L3355.937,118.144C3362.993,118.716 3369.498,122.18 3373.912,127.715C3378.326,133.249 3380.255,140.362 3379.243,147.369L3367.488,228.744C3367.46,228.932 3367.468,229.124 3367.511,229.31C3367.553,229.496 3367.629,229.673 3367.736,229.831L3413.634,298.047C3417.586,303.92 3418.934,311.166 3417.359,318.067C3415.784,324.969 3411.425,330.912 3405.317,334.489L3334.366,376.035C3334.201,376.131 3334.056,376.257 3333.937,376.406C3333.818,376.555 3333.728,376.725 3333.67,376.907L3308.954,455.324C3306.826,462.075 3302.002,467.647 3295.624,470.718C3289.246,473.789 3281.882,474.088 3275.277,471.542L3198.557,441.974C3198.38,441.905 3198.191,441.87 3198,441.87C3197.809,441.87 3197.62,441.905 3197.443,441.974L3120.723,471.542C3114.118,474.088 3106.754,473.789 3100.376,470.718C3093.998,467.647 3089.174,462.075 3087.046,455.324L3062.33,376.907C3062.272,376.725 3062.182,376.555 3062.063,376.406C3061.944,376.257 3061.799,376.131 3061.634,376.035L2990.683,334.489C2984.575,330.912 2980.216,324.969 2978.641,318.067C2977.066,311.166 2978.414,303.92 2982.366,298.047L3028.264,229.831C3028.371,229.673 3028.447,229.496 3028.489,229.31C3028.532,229.124 3028.54,228.932 3028.512,228.744L3016.757,147.369C3015.745,140.362 3017.674,133.249 3022.088,127.715C3026.502,122.18 3033.007,118.716 3040.063,118.144L3122.013,111.497C3122.203,111.482 3122.389,111.431 3122.561,111.349C3122.732,111.266 3122.887,111.152 3123.018,111.013L3179.31,51.086Z" style="fill:rgb(17,114,186);"/>
                </g>
                <g transform="matrix(-0.270509,-0.77217,1.227135,-0.429894,832.073944,4048.60081)">
                    <path d="M2369,239C2369,240.656 2366.864,242 2364.232,242L2362.768,242C2360.136,242 2358,240.656 2358,239C2358,237.344 2360.136,236 2362.768,236L2364.232,236C2366.864,236 2369,237.344 2369,239Z"/>
                </g>
                <g transform="matrix(1,0,0,1,-1652.988527,1686)">
                    <path d="M2252,396C2250,377 2234,391 2234,391C2234,391 2215,366.226 2201,388C2195.167,400.05 2215,416 2223,417C2231,418 2253.361,408.929 2252,396Z" style="fill:white;"/>
                </g>
                <g>
                    <clipPath id="_clip1">
                        <path d="M599.011,2082C597.011,2063 581.011,2077 581.011,2077C581.011,2077 562.011,2052.226 548.011,2074C542.179,2086.05 562.011,2102 570.011,2103C578.011,2104 600.372,2094.929 599.011,2082Z"/>
                    </clipPath>
                    <g clip-path="url(#_clip1)">
                        <g transform="matrix(1,0,0,1,-1652.988527,1686)">
                            <path d="M2210,416L2222,373" style="fill:none;stroke:black;stroke-width:1px;"/>
                        </g>
                        <g transform="matrix(1,0,0,1,-1636.988527,1693)">
                            <path d="M2210,416L2222,373" style="fill:none;stroke:black;stroke-width:1px;"/>
                        </g>
                        <g transform="matrix(1,0,0,1,-1623.988527,1692)">
                            <path d="M2210,416L2222,373" style="fill:none;stroke:black;stroke-width:1px;"/>
                        </g>
                    </g>
                </g>
                <g transform="matrix(0.797081,0,0,0.797081,133.460762,416.166307)">
                    <g transform="matrix(0.909064,0,0,0.894139,-135.524218,779.314502)">
                        <circle cx="826.5" cy="1392.5" r="51.5" style="fill:white;"/>
                    </g>
                    <g transform="matrix(0.687215,0,0,0.675933,43.408263,1083.404373)">
                        <circle cx="826.5" cy="1392.5" r="51.5"/>
                    </g>
                </g>
                <g transform="matrix(1.253431,-0.710658,0.525582,0.927001,-1142.408739,1358.85233)">
                    <path d="M849.405,1317.258C849.666,1317.288 849.888,1317.528 849.967,1317.865C850.193,1318.826 850.66,1320.814 850.957,1322.075C851.021,1322.348 850.989,1322.645 850.869,1322.881C850.75,1323.117 850.557,1323.265 850.346,1323.283C846.843,1323.578 833.906,1324.67 830.715,1324.94C830.53,1324.955 830.348,1324.867 830.212,1324.695C830.077,1324.523 830,1324.282 830,1324.031C830,1322.211 830,1318.283 830,1316.26C830,1315.936 830.101,1315.627 830.277,1315.408C830.454,1315.189 830.69,1315.08 830.929,1315.108C834.453,1315.518 846.925,1316.969 849.405,1317.258Z"/>
                </g>
                <g transform="matrix(-0.981669,-1.054728,-0.780046,0.726014,2415.929779,1929.384139)">
                    <path d="M849.405,1317.258C849.666,1317.288 849.888,1317.528 849.967,1317.865C850.193,1318.826 850.66,1320.814 850.957,1322.075C851.021,1322.348 850.989,1322.645 850.869,1322.881C850.75,1323.117 850.557,1323.265 850.346,1323.283C846.843,1323.578 833.906,1324.67 830.715,1324.94C830.53,1324.955 830.348,1324.867 830.212,1324.695C830.077,1324.523 830,1324.282 830,1324.031C830,1322.211 830,1318.283 830,1316.26C830,1315.936 830.101,1315.627 830.277,1315.408C830.454,1315.189 830.69,1315.08 830.929,1315.108C834.453,1315.518 846.925,1316.969 849.405,1317.258Z"/>
                </g>
                <g transform="matrix(1.027115,0.370987,-0.150441,0.41651,-1632.321777,1093.355326)">
                    <path d="M2186,333C2186,338.519 2184.434,343 2182.505,343L2115.495,343C2113.566,343 2112,338.519 2112,333C2112,329.292 2113.257,328.836 2115.186,328.836L2182.505,323C2184.434,323 2186,327.481 2186,333Z"/>
                </g>
            </g>
        </g>
    </g>
</svg>
