<?xml version="1.0" encoding="UTF-8" standalone="no"?>
<!DOCTYPE svg PUBLIC "-//W3C//DTD SVG 1.1//EN" "http://www.w3.org/Graphics/SVG/1.1/DTD/svg11.dtd">
<svg width="100%" height="100%" viewBox="0 0 620 588" version="1.1" xmlns="http://www.w3.org/2000/svg" xmlns:xlink="http://www.w3.org/1999/xlink" xml:space="preserve" xmlns:serif="http://www.serif.com/" style="fill-rule:evenodd;clip-rule:evenodd;stroke-linecap:round;stroke-linejoin:round;stroke-miterlimit:1.5;">
    <g transform="matrix(1,0,0,1,-3340.409273,-5187.252556)">
        <g transform="matrix(1.9994,0,0,1.9994,-2943.401822,3780.668122)">
            <g id="Peaceful-Default" serif:id="Peaceful Default" transform="matrix(1.102894,0,0,1.102894,2084.070383,-1133.60065)">
                <g transform="matrix(1,0,0,1,0,0.956742)">
                    <g transform="matrix(1.057452,0,0,0.956742,223.117287,482.81744)">
                        <path d="M823,1468.865L823,1506.087C823,1510.457 819.795,1514 815.841,1514L782.294,1514C781.579,1514 781,1513.36 781,1512.57L781,1509.81C781,1508.11 781.929,1506.578 783.351,1505.931L803,1497L803,1477.075L823,1468.865Z" style="fill:rgb(95,162,74);"/>
                    </g>
                    <g transform="matrix(0.956742,0,0,0.956742,40.908189,429.876804)">
                        <path d="M1077.974,1547.621L1077.974,1532.41L1100.079,1524.199L1100.079,1551.075L1077.974,1547.621Z" style="fill-opacity:0.36;"/>
                    </g>
                    <g transform="matrix(-1.057452,0,0,0.956742,1979.54461,482.81744)">
                        <path d="M823,1468.865L823,1506.087C823,1510.457 819.795,1514 815.841,1514L782.294,1514C781.579,1514 781,1513.36 781,1512.57L781,1509.81C781,1508.11 781.929,1506.578 783.351,1505.931L803,1497L803,1477.075L823,1468.865Z" style="fill:rgb(95,162,74);"/>
                    </g>
                    <g transform="matrix(-0.956742,0,0,0.956742,2161.753708,429.876804)">
                        <path d="M1077.974,1547.621L1077.974,1532.41L1100.079,1524.199L1100.079,1551.075L1077.974,1547.621Z" style="fill-opacity:0.36;"/>
                    </g>
                </g>
                <g transform="matrix(0.956742,0,0,0.956742,40.908189,428.920062)">
                    <path d="M1011,1503C1011,1503 1013,1522.242 1021,1549.621"/>
                </g>
                <g transform="matrix(0.839614,-0.015721,0.016933,0.904355,132.267215,523.431406)">
                    <path d="M1008.856,1502.569C1008.618,1500.282 1009.282,1499.093 1011.569,1498.856C1013.857,1498.618 1012.907,1500.282 1013.144,1502.569C1013.144,1502.569 1017.126,1521.505 1024.999,1548.452C1025.644,1550.66 1024.376,1552.975 1022.169,1553.62C1019.961,1554.265 1017.646,1552.997 1017.001,1550.79C1008.874,1522.979 1008.856,1502.569 1008.856,1502.569Z"/>
                </g>
                <g transform="matrix(-0.839614,-0.015721,-0.016933,0.904355,2065.819869,523.431406)">
                    <path d="M1008.856,1502.569C1008.618,1500.282 1009.282,1499.093 1011.569,1498.856C1013.857,1498.618 1012.907,1500.282 1013.144,1502.569C1013.144,1502.569 1017.126,1521.505 1024.999,1548.452C1025.644,1550.66 1024.376,1552.975 1022.169,1553.62C1019.961,1554.265 1017.646,1552.997 1017.001,1550.79C1008.874,1522.979 1008.856,1502.569 1008.856,1502.569Z"/>
                </g>
                <g id="Pecal" transform="matrix(0.921311,0,0,0.797667,-1405.006557,1086.605213)">
                    <path d="M2719.5,726C2817.777,726 2872,794.333 2872,878.5C2872,962.667 2817.777,1031 2719.5,1031C2621.223,1031 2567,962.667 2567,878.5C2567,794.333 2621.223,726 2719.5,726Z" style="fill:rgb(95,162,74);"/>
                </g>
                <g transform="matrix(1,0,0,1,-0.956742,-5.740452)">
                    <g transform="matrix(0.956742,0,0,1.208516,41.864931,62.336796)">
                        <path d="M1099,1456C1099,1456 1099,1475 1107.5,1475" style="fill:none;stroke:black;stroke-width:1.73px;"/>
                    </g>
                    <g transform="matrix(-0.956742,0,0,1.208516,2160.570182,62.336796)">
                        <path d="M1099,1456C1099,1456 1099,1475 1107.5,1475" style="fill:none;stroke:black;stroke-width:1.73px;"/>
                    </g>
                </g>
                <g transform="matrix(1.04786,0,0,1.494909,-60.096435,-326.248391)">
                    <path d="M1119,1405C1119,1405 1108,1397 1098,1405" style="fill:none;stroke:black;stroke-width:1.46px;"/>
                </g>
                <g transform="matrix(-0.910291,0,0,0.910291,1611.886391,-54.477652)">
                    <g transform="matrix(0.909064,0,0,0.894139,-135.524218,779.314502)">
                        <circle cx="826.5" cy="1392.5" r="51.5" style="fill:white;"/>
                    </g>
                    <g transform="matrix(-1.051029,0,0,1.051029,1725.798231,531.036597)">
                        <path d="M1010.556,1423L1007.761,1423C1006.237,1423 1005,1421.763 1005,1420.239L1005,1409.761C1005,1408.237 1006.237,1407 1007.761,1407L1012.727,1407C1012.961,1406.292 1013.212,1405.592 1013.48,1404.9C1013.692,1404.358 1014.214,1404 1014.796,1404C1014.869,1404 1014.942,1404 1015.016,1404C1015.256,1404 1015.481,1404.12 1015.615,1404.32C1015.749,1404.52 1015.775,1404.773 1015.684,1404.996C1015.354,1405.806 1015.049,1406.629 1014.769,1407.463C1013.354,1411.678 1012.588,1416.182 1012.588,1420.862C1012.588,1421.579 1012.606,1422.292 1012.642,1423C1013.776,1445.618 1032.814,1463.633 1056.09,1463.633C1080.095,1463.633 1099.592,1444.472 1099.592,1420.862C1099.592,1415.258 1098.494,1409.905 1096.498,1405C1096.406,1404.777 1096.431,1404.522 1096.565,1404.322C1096.699,1404.121 1096.924,1404.001 1097.165,1404.001C1097.745,1404 1098.34,1404 1098.34,1404C1100.491,1409.207 1101.676,1414.9 1101.676,1420.862C1101.676,1445.613 1081.254,1465.716 1056.09,1465.716C1031.655,1465.716 1011.691,1446.76 1010.556,1423Z"/>
                    </g>
                    <g transform="matrix(0.687215,0,0,0.675933,43.408263,1083.404373)">
                        <circle cx="826.5" cy="1392.5" r="51.5"/>
                    </g>
                    <g transform="matrix(0.855184,0.532779,-0.344509,0.552984,333.415066,769.217235)">
                        <path d="M849.215,1317.236C849.593,1317.28 849.919,1317.662 850.049,1318.213C850.236,1319.007 850.514,1320.192 850.753,1321.208C850.864,1321.678 850.824,1322.201 850.645,1322.618C850.467,1323.035 850.172,1323.298 849.849,1323.325C845.899,1323.658 834.575,1324.614 831.056,1324.911C830.782,1324.934 830.513,1324.781 830.313,1324.489C830.113,1324.196 830,1323.79 830,1323.364C830,1321.661 830,1318.987 830,1317.122C830,1316.574 830.148,1316.051 830.407,1315.679C830.667,1315.306 831.015,1315.118 831.368,1315.159C835.289,1315.615 846.459,1316.915 849.215,1317.236Z"/>
                    </g>
                </g>
                <g transform="matrix(0.910291,0,0,0.910291,590.716723,-54.477652)">
                    <g transform="matrix(0.909064,0,0,0.894139,-135.524218,779.314502)">
                        <circle cx="826.5" cy="1392.5" r="51.5" style="fill:white;"/>
                    </g>
                    <g transform="matrix(-1.051029,0,0,1.051029,1725.798231,531.036597)">
                        <path d="M1010.556,1423L1007.761,1423C1006.237,1423 1005,1421.763 1005,1420.239L1005,1409.761C1005,1408.237 1006.237,1407 1007.761,1407L1012.727,1407C1012.961,1406.292 1013.212,1405.592 1013.48,1404.9C1013.692,1404.358 1014.214,1404 1014.796,1404C1014.869,1404 1014.942,1404 1015.016,1404C1015.256,1404 1015.481,1404.12 1015.615,1404.32C1015.749,1404.52 1015.775,1404.773 1015.684,1404.996C1015.354,1405.806 1015.049,1406.629 1014.769,1407.463C1013.354,1411.678 1012.588,1416.182 1012.588,1420.862C1012.588,1421.579 1012.606,1422.292 1012.642,1423C1013.776,1445.618 1032.814,1463.633 1056.09,1463.633C1080.095,1463.633 1099.592,1444.472 1099.592,1420.862C1099.592,1415.258 1098.494,1409.905 1096.498,1405C1096.406,1404.777 1096.431,1404.522 1096.565,1404.322C1096.699,1404.121 1096.924,1404.001 1097.165,1404.001C1097.745,1404 1098.34,1404 1098.34,1404C1100.491,1409.207 1101.676,1414.9 1101.676,1420.862C1101.676,1445.613 1081.254,1465.716 1056.09,1465.716C1031.655,1465.716 1011.691,1446.76 1010.556,1423Z"/>
                    </g>
                    <g transform="matrix(0.687215,0,0,0.675933,43.408263,1083.404373)">
                        <circle cx="826.5" cy="1392.5" r="51.5"/>
                    </g>
                    <g transform="matrix(0.855184,0.532779,-0.344509,0.552984,333.415066,769.217235)">
                        <path d="M849.215,1317.236C849.593,1317.28 849.919,1317.662 850.049,1318.213C850.236,1319.007 850.514,1320.192 850.753,1321.208C850.864,1321.678 850.824,1322.201 850.645,1322.618C850.467,1323.035 850.172,1323.298 849.849,1323.325C845.899,1323.658 834.575,1324.614 831.056,1324.911C830.782,1324.934 830.513,1324.781 830.313,1324.489C830.113,1324.196 830,1323.79 830,1323.364C830,1321.661 830,1318.987 830,1317.122C830,1316.574 830.148,1316.051 830.407,1315.679C830.667,1315.306 831.015,1315.118 831.368,1315.159C835.289,1315.615 846.459,1316.915 849.215,1317.236Z"/>
                    </g>
                </g>
            </g>
        </g>
    </g>
</svg>
