<?xml version="1.0" encoding="UTF-8" standalone="no"?>
<!DOCTYPE svg PUBLIC "-//W3C//DTD SVG 1.1//EN" "http://www.w3.org/Graphics/SVG/1.1/DTD/svg11.dtd">
<svg width="100%" height="100%" viewBox="0 0 607 535" version="1.1" xmlns="http://www.w3.org/2000/svg" xmlns:xlink="http://www.w3.org/1999/xlink" xml:space="preserve" xmlns:serif="http://www.serif.com/" style="fill-rule:evenodd;clip-rule:evenodd;stroke-linecap:round;stroke-linejoin:round;">
    <g transform="matrix(1,0,0,1,-3313.729915,-6585.829715)">
        <g transform="matrix(1.9994,0,0,1.9994,-2943.401822,3780.668122)">
            <g transform="matrix(0.09784,0,0,0.09784,3281.139407,1536.606905)">
                <g transform="matrix(1,0,0,1,-1549.8125,-1365.541667)">
                    <g id="Layer_1-2" transform="matrix(4.166667,0,0,4.166667,0,0)">
                        <g>
                            <path d="M351.16,642.23C351.16,649.54 345.24,655.46 337.93,655.46L245.74,655.46C244.42,655.46 243.35,654.39 243.35,653.07L243.35,642.01C243.35,639.26 244.96,636.76 247.46,635.62C260.46,629.71 299.82,611.82 299.82,611.82L299.82,514.27L351.16,514.27L351.16,642.23Z" style="fill:rgb(221,116,165);fill-rule:nonzero;"/>
                            <g opacity="0.36">
                                <path d="M351.16,551.77L351.16,613.2L299.82,578.42L299.82,549.1L312.92,539.02L351.16,551.77Z" style="fill:rgb(1,1,1);"/>
                            </g>
                            <path d="M392.23,642.23C392.23,649.54 398.15,655.46 405.46,655.46L497.65,655.46C498.97,655.46 500.04,654.39 500.04,653.07L500.04,642.01C500.04,639.26 498.43,636.76 495.93,635.62C482.93,629.71 443.57,611.82 443.57,611.82L443.57,514.27L392.23,514.27L392.23,642.23Z" style="fill:rgb(221,116,165);fill-rule:nonzero;"/>
                            <g opacity="0.36">
                                <path d="M392.23,551.77L392.23,613.2L443.57,578.42L443.57,549.1L430.47,539.02L392.23,551.77Z" style="fill:rgb(1,1,1);"/>
                            </g>
                            <path d="M623.84,399.48L623.84,461.09C623.84,462.55 622.76,463.78 621.31,463.95C621.31,463.95 560.52,471.47 530.14,491.72C528.81,492.6 527.02,492.25 526.14,490.92C525.26,489.59 525.61,487.8 526.94,486.92C554.42,468.6 606.08,460.3 618.07,458.57L618.07,456.11L614.72,422.61C614.56,421.02 615.72,419.61 617.3,419.45C617.56,419.42 617.82,419.43 618.06,419.48L618.06,399.49C618.06,397.9 619.35,396.6 620.95,396.6C622.55,396.6 623.84,397.89 623.84,399.49L623.84,399.48Z" style="fill:rgb(1,1,1);"/>
                            <path d="M112.65,455.82L112.38,458.5C112.33,459.05 112.43,459.57 112.65,460.03L112.65,455.82Z" style="fill:rgb(1,1,1);"/>
                            <path d="M112.65,399.48L112.65,461.09C112.65,462.55 113.73,463.78 115.18,463.95C115.18,463.95 175.97,471.47 206.35,491.72C207.68,492.6 209.47,492.25 210.35,490.92C211.23,489.59 210.88,487.8 209.55,486.92C182.07,468.6 130.41,460.3 118.42,458.57L118.42,456.11L121.77,422.61C121.93,421.02 120.77,419.61 119.19,419.45C118.93,419.42 118.67,419.43 118.43,419.48L118.43,399.49C118.43,397.9 117.14,396.6 115.54,396.6C113.94,396.6 112.65,397.89 112.65,399.49L112.65,399.48Z" style="fill:rgb(1,1,1);"/>
                            <path d="M391.76,597.88C379.57,605.2 364.35,605.2 352.16,597.88C275.17,550.16 0,368.46 0,209.59C0,200.24 0.32,190.57 0.92,180.62C5.93,89.08 75.26,14 166.12,1.73C256.08,-10.41 342.01,42.4 371.96,127.83C401.9,42.4 487.84,-10.41 577.79,1.73C668.65,14 737.98,89.08 742.98,180.63C743.59,190.58 743.9,200.25 743.9,209.6C743.9,368.47 468.73,550.17 391.74,597.89L391.76,597.88Z" style="fill:rgb(221,116,165);fill-rule:nonzero;"/>
                            <path d="M124.15,194.09L124.13,194.08C122.89,193.39 122.33,191.9 122.82,190.57C122.87,190.43 122.94,190.29 123.01,190.15C123.7,188.91 125.19,188.35 126.52,188.84C126.81,188.95 153.69,198.7 175.7,188.91C177.16,188.26 178.87,188.92 179.51,190.38C180.16,191.84 179.5,193.55 178.04,194.19C176.85,194.72 175.64,195.2 174.42,195.63C174.44,195.68 174.46,195.72 174.47,195.77C174.98,197.28 174.16,198.92 172.64,199.42C148.82,207.36 124.99,194.55 124.14,194.08L124.15,194.09Z" style="fill:rgb(1,1,1);"/>
                            <path d="M616.06,194.09L616.08,194.08C617.32,193.39 617.88,191.9 617.39,190.57C617.34,190.43 617.27,190.29 617.2,190.15C616.51,188.91 615.02,188.35 613.69,188.84C613.4,188.95 586.52,198.7 564.51,188.91C563.05,188.26 561.34,188.92 560.7,190.38C560.05,191.84 560.71,193.55 562.17,194.19C563.36,194.72 564.57,195.2 565.79,195.63C565.77,195.68 565.75,195.72 565.74,195.77C565.23,197.28 566.05,198.92 567.57,199.42C591.39,207.36 615.22,194.55 616.07,194.08L616.06,194.09Z" style="fill:rgb(1,1,1);"/>
                            <g>
                                <ellipse cx="495.12" cy="285.81" rx="120.18" ry="118.21" style="fill:white;"/>
                                <ellipse cx="483.76" cy="286.42" rx="90.85" ry="89.36" style="fill:rgb(1,1,1);"/>
                            </g>
                            <g>
                                <ellipse cx="246.12" cy="285.81" rx="120.18" ry="118.21" style="fill:white;"/>
                                <ellipse cx="257.48" cy="286.42" rx="90.85" ry="89.36" style="fill:rgb(1,1,1);"/>
                            </g>
                            <path d="M343.72,404.62L369.39,427.72L397.63,404.62" style="fill:none;fill-rule:nonzero;stroke:rgb(1,1,1);stroke-width:6px;"/>
                            <path d="M206.52,155.87C206.52,155.87 206.38,156.27 206.16,156.86C205.76,157.97 206,159.2 206.78,160.08C207.57,160.96 208.76,161.33 209.91,161.06C222.13,158.16 250.34,151.45 260.1,149.14C260.99,148.93 261.76,148.37 262.23,147.58C262.7,146.79 262.83,145.85 262.59,144.97C262.44,144.42 262.29,143.85 262.14,143.29C261.84,142.16 261.09,141.2 260.06,140.63C259.03,140.06 257.82,139.94 256.7,140.29C243.86,144.28 206.52,155.87 206.52,155.87Z" style="fill:rgb(1,1,1);"/>
                            <path d="M522.95,155.87C522.96,155.9 523.1,156.29 523.31,156.86C523.71,157.97 523.47,159.2 522.69,160.08C521.9,160.96 520.71,161.33 519.56,161.06C507.34,158.16 479.13,151.45 469.37,149.14C468.48,148.93 467.71,148.37 467.24,147.58C466.77,146.79 466.64,145.85 466.88,144.97C467.03,144.42 467.18,143.85 467.33,143.29C467.63,142.16 468.38,141.2 469.41,140.63C470.44,140.06 471.65,139.94 472.77,140.29C485.56,144.26 522.67,155.79 522.95,155.87Z" style="fill:rgb(1,1,1);"/>
                        </g>
                    </g>
                </g>
            </g>
        </g>
    </g>
</svg>
