<?xml version="1.0" encoding="UTF-8" standalone="no"?>
<!DOCTYPE svg PUBLIC "-//W3C//DTD SVG 1.1//EN" "http://www.w3.org/Graphics/SVG/1.1/DTD/svg11.dtd">
<svg width="100%" height="100%" viewBox="0 0 631 667" version="1.1" xmlns="http://www.w3.org/2000/svg" xmlns:xlink="http://www.w3.org/1999/xlink" xml:space="preserve" xmlns:serif="http://www.serif.com/" style="fill-rule:evenodd;clip-rule:evenodd;stroke-linecap:round;stroke-linejoin:round;stroke-miterlimit:1.5;">
    <g transform="matrix(1,0,0,1,-2683.493471,-4295.378212)">
        <g transform="matrix(1.9994,0,0,1.9994,-2943.401822,3780.668122)">
            <g id="Purpose-Default" serif:id="Purpose Default" transform="matrix(1.044695,0,0,1.044695,2376.283773,-1696.246453)">
                <g transform="matrix(1,0,0,1,-267,675)">
                    <path d="M954,1410L960,1419L927,1433L921,1440L926.062,1440L969,1421L957,1406L954,1410Z"/>
                </g>
                <g transform="matrix(-1,0,0,1,1406,675)">
                    <path d="M954,1410L960,1419L927,1433L921,1440L926.062,1440L969,1421L957,1406L954,1410Z"/>
                </g>
                <g transform="matrix(1,0,0,1,-257,675)">
                    <path d="M823,1510.212C823,1511.216 822.601,1512.18 821.89,1512.89C821.18,1513.601 820.216,1514 819.212,1514C809.842,1514 786.026,1514 781.685,1514C781.307,1514 781,1513.694 781,1513.315C781,1512.153 781,1509.776 781,1508.293C781,1507.506 781.46,1506.791 782.177,1506.465C786.739,1504.391 803,1497 803,1497L803,1459L823,1459L823,1510.212Z" style="fill:rgb(17,114,186);"/>
                    <g transform="matrix(-1,0,0,1,1657,0)">
                        <path d="M823,1510.212C823,1511.216 822.601,1512.18 821.89,1512.89C821.18,1513.601 820.216,1514 819.212,1514C809.842,1514 786.026,1514 781.685,1514C781.307,1514 781,1513.694 781,1513.315C781,1512.153 781,1509.776 781,1508.293C781,1507.506 781.46,1506.791 782.177,1506.465C786.739,1504.391 803,1497 803,1497L803,1459L823,1459L823,1510.212Z" style="fill:rgb(17,114,186);"/>
                    </g>
                    <g transform="matrix(1,0,0,1,0,-2)">
                        <path d="M803,1487.353L803,1473.944L823,1467.833L823,1478.529L803,1487.353Z"/>
                    </g>
                    <g transform="matrix(-1,0,0,1,1657,-2)">
                        <path d="M803,1487.353L803,1473.944L823,1467.833L823,1478.529L803,1487.353Z"/>
                    </g>
                </g>
                <g id="Puven" transform="matrix(0.685738,0,-0,0.687856,-1622.856567,1840.516635)">
                    <path d="M3179.31,51.086C3184.157,45.926 3190.921,43 3198,43C3205.079,43 3211.843,45.926 3216.69,51.086L3272.982,111.013C3273.113,111.152 3273.268,111.266 3273.439,111.349C3273.611,111.431 3273.797,111.482 3273.987,111.497L3355.937,118.144C3362.993,118.716 3369.498,122.18 3373.912,127.715C3378.326,133.249 3380.255,140.362 3379.243,147.369L3367.488,228.744C3367.46,228.932 3367.468,229.124 3367.511,229.31C3367.553,229.496 3367.629,229.673 3367.736,229.831L3413.634,298.047C3417.586,303.92 3418.934,311.166 3417.359,318.067C3415.784,324.969 3411.425,330.912 3405.317,334.489L3334.366,376.035C3334.201,376.131 3334.056,376.257 3333.937,376.406C3333.818,376.555 3333.728,376.725 3333.67,376.907L3308.954,455.324C3306.826,462.075 3302.002,467.647 3295.624,470.718C3289.246,473.789 3281.882,474.088 3275.277,471.542L3198.557,441.974C3198.38,441.905 3198.191,441.87 3198,441.87C3197.809,441.87 3197.62,441.905 3197.443,441.974L3120.723,471.542C3114.118,474.088 3106.754,473.789 3100.376,470.718C3093.998,467.647 3089.174,462.075 3087.046,455.324L3062.33,376.907C3062.272,376.725 3062.182,376.555 3062.063,376.406C3061.944,376.257 3061.799,376.131 3061.634,376.035L2990.683,334.489C2984.575,330.912 2980.216,324.969 2978.641,318.067C2977.066,311.166 2978.414,303.92 2982.366,298.047L3028.264,229.831C3028.371,229.673 3028.447,229.496 3028.489,229.31C3028.532,229.124 3028.54,228.932 3028.512,228.744L3016.757,147.369C3015.745,140.362 3017.674,133.249 3022.088,127.715C3026.502,122.18 3033.007,118.716 3040.063,118.144L3122.013,111.497C3122.203,111.482 3122.389,111.431 3122.561,111.349C3122.732,111.266 3122.887,111.152 3123.018,111.013L3179.31,51.086Z" style="fill:rgb(17,114,186);"/>
                </g>
                <g transform="matrix(0.150286,-0.560877,-0.728721,-0.19526,1493.170806,2845.204519)">
                    <path d="M850,1320C850,1322.76 847.089,1325 843.504,1325L836.496,1325C832.911,1325 830,1322.76 830,1320C830,1317.24 832.911,1315 836.496,1315L843.504,1315C847.089,1315 850,1317.24 850,1320Z"/>
                </g>
                <g transform="matrix(-0.150286,-0.560877,0.728721,-0.19526,-353.170806,2845.204519)">
                    <path d="M850,1320C850,1322.76 847.089,1325 843.504,1325L836.496,1325C832.911,1325 830,1322.76 830,1320C830,1317.24 832.911,1315 836.496,1315L843.504,1315C847.089,1315 850,1317.24 850,1320Z"/>
                </g>
                <g transform="matrix(1.307692,0,0,0.916667,-172.538462,181.166667)">
                    <path d="M564,2078C564,2078 577.58,2075.141 586.009,2069.423C587.549,2068.377 588.918,2067.237 590,2066" style="fill:none;stroke:black;stroke-width:1.77px;"/>
                </g>
                <g transform="matrix(1,0,0,1,3,9)">
                    <g transform="matrix(0.909064,0,0,0.894139,-135.524218,779.314502)">
                        <circle cx="826.5" cy="1392.5" r="51.5" style="fill:white;"/>
                    </g>
                    <g transform="matrix(0.687215,0,0,0.675933,43.408263,1083.404373)">
                        <circle cx="826.5" cy="1392.5" r="51.5"/>
                    </g>
                    <g transform="matrix(0.876492,-0.496945,0.525582,0.927001,-847.549371,1172.470361)">
                        <path d="M849.187,1317.233C849.576,1317.278 849.893,1317.55 849.978,1317.912C850.214,1318.916 850.691,1320.942 850.981,1322.177C851.042,1322.438 850.982,1322.711 850.815,1322.926C850.648,1323.142 850.391,1323.279 850.11,1323.303C846.422,1323.614 834.639,1324.609 831.048,1324.912C830.779,1324.934 830.512,1324.849 830.313,1324.677C830.114,1324.504 830,1324.26 830,1324.005C830,1322.188 830,1318.334 830,1316.308C830,1315.976 830.15,1315.661 830.413,1315.441C830.675,1315.222 831.025,1315.119 831.373,1315.16C835.284,1315.615 846.384,1316.907 849.187,1317.233Z"/>
                    </g>
                </g>
                <g transform="matrix(-1,0,0,1,1137.633541,9)">
                    <g transform="matrix(0.909064,0,0,0.894139,-135.524218,779.314502)">
                        <circle cx="826.5" cy="1392.5" r="51.5" style="fill:white;"/>
                    </g>
                    <g transform="matrix(0.687215,0,0,0.675933,43.408263,1083.404373)">
                        <circle cx="826.5" cy="1392.5" r="51.5"/>
                    </g>
                    <g transform="matrix(0.876492,-0.496945,0.525582,0.927001,-847.991218,1172.470361)">
                        <path d="M849.187,1317.233C849.576,1317.278 849.893,1317.55 849.978,1317.912C850.214,1318.916 850.691,1320.942 850.981,1322.177C851.042,1322.438 850.982,1322.711 850.815,1322.926C850.648,1323.142 850.391,1323.279 850.11,1323.303C846.422,1323.614 834.639,1324.609 831.048,1324.912C830.779,1324.934 830.512,1324.849 830.313,1324.677C830.114,1324.504 830,1324.26 830,1324.005C830,1322.188 830,1318.334 830,1316.308C830,1315.976 830.15,1315.661 830.413,1315.441C830.675,1315.222 831.025,1315.119 831.373,1315.16C835.284,1315.615 846.384,1316.907 849.187,1317.233Z"/>
                    </g>
                </g>
            </g>
        </g>
    </g>
</svg>
