<?xml version="1.0" encoding="UTF-8" standalone="no"?>
<!DOCTYPE svg PUBLIC "-//W3C//DTD SVG 1.1//EN" "http://www.w3.org/Graphics/SVG/1.1/DTD/svg11.dtd">
<svg width="100%" height="100%" viewBox="0 0 602 584" version="1.1" xmlns="http://www.w3.org/2000/svg" xmlns:xlink="http://www.w3.org/1999/xlink" xml:space="preserve" xmlns:serif="http://www.serif.com/" style="fill-rule:evenodd;clip-rule:evenodd;stroke-linecap:round;stroke-linejoin:round;stroke-miterlimit:1.5;">
    <g transform="matrix(1,0,0,1,-2692.589309,-5862.207011)">
        <g transform="matrix(1.9994,0,0,1.9994,-2943.401822,3780.668122)">
            <g id="Rebel-Default" serif:id="Rebel Default" transform="matrix(1.044201,0,0,1.044201,1464.065424,-295.495775)">
                <g transform="matrix(0.95767,0,0,0.95767,-1056.770749,282.987342)">
                    <g transform="matrix(1.154663,0,0,1.044695,1649.800306,-248.613057)">
                        <path d="M823,1468.865L823,1506.087C823,1510.457 819.795,1514 815.841,1514L782.294,1514C781.579,1514 781,1513.36 781,1512.57L781,1509.81C781,1508.11 781.929,1506.578 783.351,1505.931L803,1497L803,1477.075L823,1468.865Z" style="fill:rgb(228,62,53);"/>
                    </g>
                    <g transform="matrix(1.044695,0,0,1.044695,1112.125589,-296.266022)">
                        <path d="M1424.303,1536L1402.198,1536L1402.198,1525.69L1424.303,1517.479L1424.303,1536Z" style="fill-opacity:0.36;"/>
                    </g>
                    <g transform="matrix(-1.154663,0,0,1.044695,3567.595247,-248.613057)">
                        <path d="M823,1468.865L823,1506.087C823,1510.457 819.795,1514 815.841,1514L782.294,1514C781.579,1514 781,1513.36 781,1512.57L781,1509.81C781,1508.11 781.929,1506.578 783.351,1505.931L803,1497L803,1477.075L823,1468.865Z" style="fill:rgb(228,62,53);"/>
                    </g>
                    <g transform="matrix(-1.044695,0,0,1.044695,4105.269964,-296.266022)">
                        <path d="M1424.303,1536L1402.198,1536L1402.198,1525.69L1424.303,1517.479L1424.303,1536Z" style="fill-opacity:0.36;"/>
                    </g>
                </g>
                <g transform="matrix(1.121212,0,0,0.944444,-189.818182,80.055556)">
                    <path d="M1533,1443L1566,1459L1533,1441"/>
                </g>
                <path d="M1566,1458L1551,1478L1566,1458Z"/>
                <g transform="matrix(1,0,0,1,2,3)">
                    <path d="M1562.879,1458.863L1528.252,1444.721C1527.24,1444.308 1526.755,1443.152 1527.168,1442.141C1527.195,1442.073 1527.227,1442.007 1527.261,1441.944C1526.974,1441.415 1526.931,1440.762 1527.202,1440.174C1527.658,1439.181 1528.834,1438.746 1529.826,1439.202L1566.826,1456.202C1567.804,1456.651 1568.244,1457.8 1567.816,1458.787C1567.753,1458.933 1567.674,1459.066 1567.584,1459.188C1567.583,1459.188 1552.583,1479.188 1552.583,1479.188C1551.927,1480.062 1550.687,1480.239 1549.812,1479.583C1548.938,1478.927 1548.761,1477.687 1549.417,1476.813L1562.879,1458.863Z"/>
                </g>
                <g transform="matrix(-1,0,0,1,2879.000142,3)">
                    <path d="M1562.879,1458.863L1528.252,1444.721C1527.24,1444.308 1526.755,1443.152 1527.168,1442.141C1527.195,1442.073 1527.227,1442.007 1527.261,1441.944C1526.974,1441.415 1526.931,1440.762 1527.202,1440.174C1527.658,1439.181 1528.834,1438.746 1529.826,1439.202L1566.826,1456.202C1567.804,1456.651 1568.244,1457.8 1567.816,1458.787C1567.753,1458.933 1567.674,1459.066 1567.584,1459.188C1567.583,1459.188 1552.583,1479.188 1552.583,1479.188C1551.927,1480.062 1550.687,1480.239 1549.812,1479.583C1548.938,1478.927 1548.761,1477.687 1549.417,1476.813L1562.879,1458.863Z"/>
                </g>
                <g transform="matrix(1.032772,0,0,0.903226,-1807.084758,362.322581)">
                    <path d="M3141.236,1024.529C3142.11,1022.779 3143.738,1021.7 3145.5,1021.7C3147.262,1021.7 3148.89,1022.779 3149.764,1024.529C3170.457,1065.914 3260.244,1245.488 3280.798,1286.596C3281.667,1288.334 3281.661,1290.47 3280.782,1292.202C3279.903,1293.934 3278.285,1295 3276.533,1295C3235.287,1295 3055.713,1295 3014.467,1295C3012.715,1295 3011.097,1293.934 3010.218,1292.202C3009.339,1290.47 3009.333,1288.334 3010.202,1286.596C3030.756,1245.488 3120.543,1065.914 3141.236,1024.529Z" style="fill:rgb(228,62,53);"/>
                </g>
                <g transform="matrix(0.502525,-0.645671,1.026102,0.798614,123.85576,2815.539196)">
                    <path d="M2369,239C2369,240.656 2366.864,242 2364.232,242L2362.768,242C2360.136,242 2358,240.656 2358,239C2358,237.344 2360.136,236 2362.768,236L2364.232,236C2366.864,236 2369,237.344 2369,239Z"/>
                </g>
                <g transform="matrix(-0.502525,-0.645671,-1.026102,0.798614,2759.144382,2818.539196)">
                    <path d="M2369,239C2369,240.656 2366.864,242 2364.232,242L2362.768,242C2360.136,242 2358,240.656 2358,239C2358,237.344 2360.136,236 2362.768,236L2364.232,236C2366.864,236 2369,237.344 2369,239Z"/>
                </g>
                <g transform="matrix(1,0,0,0.789806,0,310.946414)">
                    <g transform="matrix(-0.750561,0,0,0.750561,3117.90051,1166.291858)">
                        <path d="M2252,396C2250,377 2234,391 2234,391C2234,391 2215,366.226 2201,388C2195.167,400.05 2215,416 2223,417C2231,418 2253.361,408.929 2252,396Z" style="fill:white;"/>
                    </g>
                    <g transform="matrix(-0.750561,0,0,0.750561,1877.2317,-99.154078)">
                        <clipPath id="_clip1">
                            <path d="M599.011,2082C597.011,2063 581.011,2077 581.011,2077C581.011,2077 562.011,2052.226 548.011,2074C542.179,2086.05 562.011,2102 570.011,2103C578.011,2104 600.372,2094.929 599.011,2082Z"/>
                        </clipPath>
                        <g clip-path="url(#_clip1)">
                            <g transform="matrix(1,0,0,1,-1655.6532,1686)">
                                <path d="M2212.665,416L2224.665,373" style="fill:none;stroke:black;stroke-width:1.48px;"/>
                            </g>
                            <g transform="matrix(1,0,0,1,-1639.6532,1693)">
                                <path d="M2210,416L2222,373" style="fill:none;stroke:black;stroke-width:1.48px;"/>
                            </g>
                            <g transform="matrix(1,0,0,1,-1627.985537,1692)">
                                <path d="M2210,416L2222,373" style="fill:none;stroke:black;stroke-width:1.48px;"/>
                            </g>
                        </g>
                    </g>
                </g>
                <g transform="matrix(-0.931343,-0.620361,-0.51502,0.773195,2882.700235,897.597378)">
                    <path d="M849.269,1317.242C849.611,1317.282 849.898,1317.57 849.991,1317.969C850.217,1318.929 850.64,1320.728 850.927,1321.948C851,1322.256 850.953,1322.588 850.8,1322.85C850.647,1323.113 850.404,1323.278 850.138,1323.3C846.44,1323.613 834.375,1324.631 830.928,1324.922C830.688,1324.942 830.452,1324.841 830.276,1324.644C830.1,1324.446 830,1324.169 830,1323.88C830,1322.063 830,1318.476 830,1316.462C830,1316.087 830.131,1315.731 830.361,1315.479C830.591,1315.228 830.899,1315.105 831.208,1315.141C834.999,1315.582 846.569,1316.928 849.269,1317.242Z"/>
                </g>
                <g transform="matrix(0.931343,-0.620361,0.51502,0.773195,-2.824392,897.597378)">
                    <path d="M849.269,1317.242C849.611,1317.282 849.898,1317.57 849.991,1317.969C850.217,1318.929 850.64,1320.728 850.927,1321.948C851,1322.256 850.953,1322.588 850.8,1322.85C850.647,1323.113 850.404,1323.278 850.138,1323.3C846.44,1323.613 834.375,1324.631 830.928,1324.922C830.688,1324.942 830.452,1324.841 830.276,1324.644C830.1,1324.446 830,1324.169 830,1323.88C830,1322.063 830,1318.476 830,1316.462C830,1316.087 830.131,1315.731 830.361,1315.479C830.591,1315.228 830.899,1315.105 831.208,1315.141C834.999,1315.582 846.569,1316.928 849.269,1317.242Z"/>
                </g>
                <g>
                    <g transform="matrix(1.054545,0,0,1.054545,-76.6,-77.8)">
                        <path d="M1333.838,1402.516C1333.454,1402.446 1333.07,1402.635 1332.89,1402.981C1332.711,1403.327 1332.778,1403.749 1333.056,1404.023C1342.883,1413.691 1384.885,1455.016 1391.98,1461.997C1392.557,1462.564 1393.472,1462.596 1394.088,1462.071C1400.241,1456.815 1430.703,1430.795 1438.942,1423.758C1439.32,1423.435 1439.478,1422.925 1439.348,1422.446C1439.219,1421.967 1438.826,1421.605 1438.337,1421.516C1423.318,1418.785 1349.307,1405.329 1333.838,1402.516Z"/>
                    </g>
                    <g>
                        <clipPath id="_clip2">
                            <path d="M1329.992,1401.217C1329.588,1401.143 1329.183,1401.342 1328.994,1401.707C1328.804,1402.072 1328.875,1402.517 1329.168,1402.806C1339.531,1413.002 1383.824,1456.58 1391.306,1463.942C1391.915,1464.541 1392.88,1464.574 1393.529,1464.02C1400.018,1458.477 1432.141,1431.039 1440.83,1423.617C1441.228,1423.277 1441.395,1422.739 1441.258,1422.234C1441.122,1421.728 1440.707,1421.347 1440.192,1421.253C1424.353,1418.373 1346.305,1404.183 1329.992,1401.217Z"/>
                        </clipPath>
                        <g clip-path="url(#_clip2)">
                            <g transform="matrix(0.76386,-0.645381,0.283284,0.335289,-38.359542,1819.228559)">
                                <rect x="1281" y="1343" width="95" height="35" style="fill:white;"/>
                            </g>
                            <g transform="matrix(0.76386,-0.645381,0.162585,0.192432,142.404282,2025.423906)">
                                <rect x="1281" y="1343" width="95" height="35" style="fill:white;"/>
                            </g>
                        </g>
                    </g>
                    <g transform="matrix(1,0,0,1.45,0,-639.8)">
                        <path d="M1433,1424C1433,1424 1440,1419 1447,1424" style="stroke:black;stroke-width:2.2px;"/>
                    </g>
                    <g transform="matrix(-1.054545,0,0,1.054545,2956.6,-77.8)">
                        <path d="M1333.838,1402.516C1333.454,1402.446 1333.07,1402.635 1332.89,1402.981C1332.711,1403.327 1332.778,1403.749 1333.056,1404.023C1342.883,1413.691 1384.885,1455.016 1391.98,1461.997C1392.557,1462.564 1393.472,1462.596 1394.088,1462.071C1400.241,1456.815 1430.703,1430.795 1438.942,1423.758C1439.32,1423.435 1439.478,1422.925 1439.348,1422.446C1439.219,1421.967 1438.826,1421.605 1438.337,1421.516C1423.318,1418.785 1349.307,1405.329 1333.838,1402.516Z"/>
                    </g>
                    <g>
                        <clipPath id="_clip3">
                            <path d="M1550.008,1401.217C1550.412,1401.143 1550.817,1401.342 1551.006,1401.707C1551.196,1402.072 1551.125,1402.517 1550.832,1402.806C1540.469,1413.002 1496.176,1456.58 1488.694,1463.942C1488.085,1464.541 1487.12,1464.574 1486.471,1464.02C1479.982,1458.477 1447.859,1431.039 1439.17,1423.617C1438.772,1423.277 1438.605,1422.739 1438.742,1422.234C1438.878,1421.728 1439.293,1421.347 1439.808,1421.253C1455.647,1418.373 1533.695,1404.183 1550.008,1401.217Z"/>
                        </clipPath>
                        <g clip-path="url(#_clip3)">
                            <g transform="matrix(0.76386,-0.645381,0.283284,0.335289,61.640458,1819.228559)">
                                <rect x="1281" y="1343" width="95" height="35" style="fill:white;"/>
                            </g>
                            <g transform="matrix(0.76386,-0.645381,0.162585,0.192432,242.404282,2025.423906)">
                                <rect x="1281" y="1343" width="95" height="35" style="fill:white;"/>
                            </g>
                        </g>
                    </g>
                </g>
            </g>
        </g>
    </g>
</svg>
